<svg height="27" viewBox="0 0 27 27" width="27" xmlns="http://www.w3.org/2000/svg"><g fill="#fedc5a"><path d="m13 4.176c-3.499-.728-7.228.824-9.877 4.252a.594.594 0 0 0 .046.778l2.748 2.794a27.534 27.534 0 0 1 7.083-7.824z"/><path d="m16 22.087 2.803 2.745c.21.205.543.225.776.045 3.442-2.648 4.992-6.382 4.231-9.877a27.778 27.778 0 0 1 -7.81 7.087z"/><path d="m15.42 13.905a2.318 2.318 0 0 1 -2.315-2.32 2.318 2.318 0 0 1 2.316-2.321 2.318 2.318 0 0 1 2.315 2.32 2.318 2.318 0 0 1 -2.315 2.321zm11.41-13.73a.564.564 0 0 0 -.44-.175c-15.887.83-21.3 14.708-21.353 14.849a.579.579 0 0 0 .133.613l6.368 6.368a.579.579 0 0 0 .617.132c.14-.054 13.945-5.535 14.844-21.35a.579.579 0 0 0 -.169-.437z"/><path d="m6.92 20.945c-1.443-1.26-3.78-1.26-5.222 0-1.328 1.161-1.662 5.041-1.698 5.48a.5.5 0 0 0 .165.405.66.66 0 0 0 .45.17h.042c.501-.03 4.935-.323 6.262-1.484 1.44-1.263 1.44-3.308 0-4.57z"/></g></svg>