<svg height="22" viewBox="0 0 19 22" width="19" xmlns="http://www.w3.org/2000/svg"><g fill="#5454d4"><path d="m7.52941176 13h-7.05882352c-.25976471 0-.47058824-.224-.47058824-.5v-12c0-.276.21082353-.5.47058824-.5h7.05882352c.25976471 0 .47058824.224.47058824.5v12c0 .276-.21082353.5-.47058824.5z"/><path d="m7.52941176 22h-7.05882352c-.25976471 0-.47058824-.224-.47058824-.5v-6c0-.276.21082353-.5.47058824-.5h7.05882352c.25976471 0 .47058824.224.47058824.5v6c0 .276-.21082353.5-.47058824.5z"/><path d="m18.5294118 7h-7.0588236c-.2597647 0-.4705882-.224-.4705882-.5v-6c0-.276.2108235-.5.4705882-.5h7.0588236c.2597647 0 .4705882.224.4705882.5v6c0 .276-.2108235.5-.4705882.5z"/><path d="m18.5294118 22h-7.0588236c-.2597647 0-.4705882-.224-.4705882-.5v-12c0-.276.2108235-.5.4705882-.5h7.0588236c.2597647 0 .4705882.224.4705882.5v12c0 .276-.2108235.5-.4705882.5z"/></g></svg>