<svg height="28" viewBox="0 0 24 28" width="24" xmlns="http://www.w3.org/2000/svg"><g fill="#f04037"><path d="m9.412 16h-8.824a.602.602 0 0 1 -.588-.615v-14.77c0-.34.264-.615.588-.615h8.824c.324 0 .588.276.588.615v14.77c0 .34-.264.615-.588.615z"/><path d="m9.412 28h-8.824c-.324 0-.588-.288-.588-.643v-7.714c0-.355.264-.643.588-.643h8.824c.324 0 .588.288.588.643v7.714c0 .355-.264.643-.588.643z"/><path d="m23.412 9h-8.824c-.324 0-.588-.288-.588-.643v-7.714c0-.355.264-.643.588-.643h8.824c.324 0 .588.288.588.643v7.714c0 .355-.264.643-.588.643z"/><path d="m23.412 28h-8.824a.602.602 0 0 1 -.588-.615v-14.77c0-.34.264-.615.588-.615h8.824c.324 0 .588.276.588.615v14.77c0 .34-.264.615-.588.615z"/></g></svg>