<svg height="18" viewBox="0 0 23 18" width="23" xmlns="http://www.w3.org/2000/svg"><g fill="#5454d4"><path d="m12 18h-10.56c-.79529004 0-1.44-.6362269-1.44-1.4210526v-15.15789477c0-.7848257.64470996-1.42105263 1.44-1.42105263h10.56v.94736842h-10.56c-.26509668 0-.48.21207565-.48.47368421v15.15789477c0 .2616085.21490332.4736842.48.4736842h10.56z"/><path d="m21.5789474 0h-7.5789474v18h7.5789474c.7848257 0 1.4210526-.6362269 1.4210526-1.4210526v-15.15789477c0-.7848257-.6362269-1.42105263-1.4210526-1.42105263zm-1.4210527 13.2631579h-3.3157894c-.2616086 0-.4736842-.2120757-.4736842-.4736842 0-.2616086.2120756-.4736842.4736842-.4736842h3.3157894c.2616086 0 .4736842.2120756.4736842.4736842 0 .2616085-.2120756.4736842-.4736842.4736842zm0-3.78947369h-3.3157894c-.2616086 0-.4736842-.21207564-.4736842-.47368421s.2120756-.47368421.4736842-.47368421h3.3157894c.2616086 0 .4736842.21207564.4736842.47368421s-.2120756.47368421-.4736842.47368421zm0-3.78947368h-3.3157894c-.2616086 0-.4736842-.21207565-.4736842-.47368421 0-.26160857.2120756-.47368421.4736842-.47368421h3.3157894c.2616086 0 .4736842.21207564.4736842.47368421 0 .26160856-.2120756.47368421-.4736842.47368421z"/></g></svg>