<svg height="24" viewBox="0 0 26 24" width="26" xmlns="http://www.w3.org/2000/svg"><path d="m23.173913 0h-20.34782604c-1.56080473 0-2.82608696 1.27917215-2.82608696 2.85711095v12.57128825c0 .7577529.29774759 1.4844702.82774171 2.0202825.52999411.5358122 1.24882038.8368284 1.99834525.8368284h5.38086956l4.35217388 5.4999386c.1072604.1356057.2696893.2145513.4414348.2145513s.3341744-.0789456.4414348-.2145513l4.3510435-5.4999386h5.3808695c1.5608048 0 2.826087-1.2791721 2.826087-2.8571109v-12.57128825c0-1.5779388-1.2652822-2.85711095-2.826087-2.85711095zm-8.9822463 12h-7.58333337c-.29915424 0-.54166666-.191878-.54166666-.4285714 0-.2366935.24251242-.4285715.54166666-.4285715h7.58333337c.2991542 0 .5416666.191878.5416666.4285715 0 .2366934-.2425124.4285714-.5416666.4285714zm6.0416666-5.14285714h-13.59999997c-.31296135 0-.56666666-.19187797-.56666666-.42857143 0-.23669347.25370531-.42857143.56666666-.42857143h13.59999997c.3129614 0 .5666667.19187796.5666667.42857143 0 .23669346-.2537053.42857143-.5666667.42857143z" fill="#77bf41"/></svg>