<svg height="12" viewBox="0 0 26 12" width="26" xmlns="http://www.w3.org/2000/svg"><path d="m20.9130435 2.05536672c-1.8493913 0-4.932087 2.18671436-8.195087 4.50215648-2.86508693 2.03312502-6.11282607 4.3375175-7.63099998 4.3375175-2.18117391 0-3.95652174-1.73533846-3.95652174-3.86735734s1.77534783-3.86735739 3.95652174-3.86735739c.38208696 0 .89926087.14198726 1.51930435.40220517l-1.42208696 2.54195876c-.10626087.18894803-.08930434.42098948.04182609.5939156.1073913.14253974.27695652.22320177.45386957.22320177.03786956 0 .07743478-.00386736.11586956-.01160207l5.05869567-1.03368938c.1605217-.03314878.299-.13204264.3786956-.27292494.0796957-.1408823.0926957-.30828363.0356087-.45855809l-1.8047391-4.78336861c-.07686957-.2033125-.26791304-.34419481-.48891304-.35966424-.21704348-.01767934-.43126087.09613146-.53695653.28618445l-1.28926086 2.304945c-.81786957-.35192952-1.51139131-.53756267-2.06191305-.53756267-2.80517391 0-5.08695652 2.23036025-5.08695652 4.97231664s2.28178261 4.97231664 5.08695652 4.97231664c1.885 0 4.99878258-2.20936603 8.29513048-4.54801229 2.8345652-2.01157832 6.0483913-4.29166174 7.5309565-4.29166174 2.1811739 0 3.9565217 1.73533851 3.9565217 3.86735739s-1.7753478 3.86735734-3.9565217 3.86735734c-.8953044 0-2.522-.7519247-4.5805218-2.11765436-.2577391-.17237365-.6093043-.10497113-.7850869.14695958-.1757826.25248319-.1079565.59612551.1503478.7673942 2.3083478 1.53147348 4.0633478 2.30825988 5.2152609 2.30825988 2.8051739 0 5.0869565-2.23036025 5.0869565-4.97231664s-2.2817826-4.97231664-5.0869565-4.97231664z" fill="#f04037"/></svg>